<?xml version="1.0" encoding="utf-8" standalone="no"?>
<!DOCTYPE svg PUBLIC "-//W3C//DTD SVG 1.1//EN"
  "http://www.w3.org/Graphics/SVG/1.1/DTD/svg11.dtd">
<!-- Created with matplotlib (https://matplotlib.org/) -->
<svg height="288pt" version="1.1" viewBox="0 0 432 288" width="432pt" xmlns="http://www.w3.org/2000/svg" xmlns:xlink="http://www.w3.org/1999/xlink">
 <metadata>
  <rdf:RDF xmlns:cc="http://creativecommons.org/ns#" xmlns:dc="http://purl.org/dc/elements/1.1/" xmlns:rdf="http://www.w3.org/1999/02/22-rdf-syntax-ns#">
   <cc:Work>
    <dc:type rdf:resource="http://purl.org/dc/dcmitype/StillImage"/>
    <dc:date>2021-07-16T18:43:58.404506</dc:date>
    <dc:format>image/svg+xml</dc:format>
    <dc:creator>
     <cc:Agent>
      <dc:title>Matplotlib v3.3.4, https://matplotlib.org/</dc:title>
     </cc:Agent>
    </dc:creator>
   </cc:Work>
  </rdf:RDF>
 </metadata>
 <defs>
  <style type="text/css">*{stroke-linecap:butt;stroke-linejoin:round;}</style>
 </defs>
 <g id="figure_1">
  <g id="patch_1">
   <path d="M 0 288 
L 432 288 
L 432 0 
L 0 0 
z
" style="fill:#ffffff;"/>
  </g>
  <g id="axes_1">
   <g id="patch_2">
    <path d="M 54 252 
L 388.8 252 
L 388.8 34.56 
L 54 34.56 
z
" style="fill:#ffffff;"/>
   </g>
   <g id="matplotlib.axis_1">
    <g id="xtick_1">
     <g id="line2d_1">
      <defs>
       <path d="M 0 0 
L 0 3.5 
" id="m476ca35877" style="stroke:#000000;stroke-width:0.8;"/>
      </defs>
      <g>
       <use style="stroke:#000000;stroke-width:0.8;" x="68.859638" xlink:href="#m476ca35877" y="252"/>
      </g>
     </g>
     <g id="text_1">
      <!-- 2000 -->
      <g transform="translate(56.134638 266.598437)scale(0.1 -0.1)">
       <defs>
        <path d="M 19.1875 8.296875 
L 53.609375 8.296875 
L 53.609375 0 
L 7.328125 0 
L 7.328125 8.296875 
Q 12.9375 14.109375 22.625 23.890625 
Q 32.328125 33.6875 34.8125 36.53125 
Q 39.546875 41.84375 41.421875 45.53125 
Q 43.3125 49.21875 43.3125 52.78125 
Q 43.3125 58.59375 39.234375 62.25 
Q 35.15625 65.921875 28.609375 65.921875 
Q 23.96875 65.921875 18.8125 64.3125 
Q 13.671875 62.703125 7.8125 59.421875 
L 7.8125 69.390625 
Q 13.765625 71.78125 18.9375 73 
Q 24.125 74.21875 28.421875 74.21875 
Q 39.75 74.21875 46.484375 68.546875 
Q 53.21875 62.890625 53.21875 53.421875 
Q 53.21875 48.921875 51.53125 44.890625 
Q 49.859375 40.875 45.40625 35.40625 
Q 44.1875 33.984375 37.640625 27.21875 
Q 31.109375 20.453125 19.1875 8.296875 
z
" id="DejaVuSans-50"/>
        <path d="M 31.78125 66.40625 
Q 24.171875 66.40625 20.328125 58.90625 
Q 16.5 51.421875 16.5 36.375 
Q 16.5 21.390625 20.328125 13.890625 
Q 24.171875 6.390625 31.78125 6.390625 
Q 39.453125 6.390625 43.28125 13.890625 
Q 47.125 21.390625 47.125 36.375 
Q 47.125 51.421875 43.28125 58.90625 
Q 39.453125 66.40625 31.78125 66.40625 
z
M 31.78125 74.21875 
Q 44.046875 74.21875 50.515625 64.515625 
Q 56.984375 54.828125 56.984375 36.375 
Q 56.984375 17.96875 50.515625 8.265625 
Q 44.046875 -1.421875 31.78125 -1.421875 
Q 19.53125 -1.421875 13.0625 8.265625 
Q 6.59375 17.96875 6.59375 36.375 
Q 6.59375 54.828125 13.0625 64.515625 
Q 19.53125 74.21875 31.78125 74.21875 
z
" id="DejaVuSans-48"/>
       </defs>
       <use xlink:href="#DejaVuSans-50"/>
       <use x="63.623047" xlink:href="#DejaVuSans-48"/>
       <use x="127.246094" xlink:href="#DejaVuSans-48"/>
       <use x="190.869141" xlink:href="#DejaVuSans-48"/>
      </g>
     </g>
    </g>
    <g id="xtick_2">
     <g id="line2d_2">
      <g>
       <use style="stroke:#000000;stroke-width:0.8;" x="127.063208" xlink:href="#m476ca35877" y="252"/>
      </g>
     </g>
     <g id="text_2">
      <!-- 2004 -->
      <g transform="translate(114.338208 266.598437)scale(0.1 -0.1)">
       <defs>
        <path d="M 37.796875 64.3125 
L 12.890625 25.390625 
L 37.796875 25.390625 
z
M 35.203125 72.90625 
L 47.609375 72.90625 
L 47.609375 25.390625 
L 58.015625 25.390625 
L 58.015625 17.1875 
L 47.609375 17.1875 
L 47.609375 0 
L 37.796875 0 
L 37.796875 17.1875 
L 4.890625 17.1875 
L 4.890625 26.703125 
z
" id="DejaVuSans-52"/>
       </defs>
       <use xlink:href="#DejaVuSans-50"/>
       <use x="63.623047" xlink:href="#DejaVuSans-48"/>
       <use x="127.246094" xlink:href="#DejaVuSans-48"/>
       <use x="190.869141" xlink:href="#DejaVuSans-52"/>
      </g>
     </g>
    </g>
    <g id="xtick_3">
     <g id="line2d_3">
      <g>
       <use style="stroke:#000000;stroke-width:0.8;" x="185.266778" xlink:href="#m476ca35877" y="252"/>
      </g>
     </g>
     <g id="text_3">
      <!-- 2008 -->
      <g transform="translate(172.541778 266.598437)scale(0.1 -0.1)">
       <defs>
        <path d="M 31.78125 34.625 
Q 24.75 34.625 20.71875 30.859375 
Q 16.703125 27.09375 16.703125 20.515625 
Q 16.703125 13.921875 20.71875 10.15625 
Q 24.75 6.390625 31.78125 6.390625 
Q 38.8125 6.390625 42.859375 10.171875 
Q 46.921875 13.96875 46.921875 20.515625 
Q 46.921875 27.09375 42.890625 30.859375 
Q 38.875 34.625 31.78125 34.625 
z
M 21.921875 38.8125 
Q 15.578125 40.375 12.03125 44.71875 
Q 8.5 49.078125 8.5 55.328125 
Q 8.5 64.0625 14.71875 69.140625 
Q 20.953125 74.21875 31.78125 74.21875 
Q 42.671875 74.21875 48.875 69.140625 
Q 55.078125 64.0625 55.078125 55.328125 
Q 55.078125 49.078125 51.53125 44.71875 
Q 48 40.375 41.703125 38.8125 
Q 48.828125 37.15625 52.796875 32.3125 
Q 56.78125 27.484375 56.78125 20.515625 
Q 56.78125 9.90625 50.3125 4.234375 
Q 43.84375 -1.421875 31.78125 -1.421875 
Q 19.734375 -1.421875 13.25 4.234375 
Q 6.78125 9.90625 6.78125 20.515625 
Q 6.78125 27.484375 10.78125 32.3125 
Q 14.796875 37.15625 21.921875 38.8125 
z
M 18.3125 54.390625 
Q 18.3125 48.734375 21.84375 45.5625 
Q 25.390625 42.390625 31.78125 42.390625 
Q 38.140625 42.390625 41.71875 45.5625 
Q 45.3125 48.734375 45.3125 54.390625 
Q 45.3125 60.0625 41.71875 63.234375 
Q 38.140625 66.40625 31.78125 66.40625 
Q 25.390625 66.40625 21.84375 63.234375 
Q 18.3125 60.0625 18.3125 54.390625 
z
" id="DejaVuSans-56"/>
       </defs>
       <use xlink:href="#DejaVuSans-50"/>
       <use x="63.623047" xlink:href="#DejaVuSans-48"/>
       <use x="127.246094" xlink:href="#DejaVuSans-48"/>
       <use x="190.869141" xlink:href="#DejaVuSans-56"/>
      </g>
     </g>
    </g>
    <g id="xtick_4">
     <g id="line2d_4">
      <g>
       <use style="stroke:#000000;stroke-width:0.8;" x="243.470347" xlink:href="#m476ca35877" y="252"/>
      </g>
     </g>
     <g id="text_4">
      <!-- 2012 -->
      <g transform="translate(230.745347 266.598437)scale(0.1 -0.1)">
       <defs>
        <path d="M 12.40625 8.296875 
L 28.515625 8.296875 
L 28.515625 63.921875 
L 10.984375 60.40625 
L 10.984375 69.390625 
L 28.421875 72.90625 
L 38.28125 72.90625 
L 38.28125 8.296875 
L 54.390625 8.296875 
L 54.390625 0 
L 12.40625 0 
z
" id="DejaVuSans-49"/>
       </defs>
       <use xlink:href="#DejaVuSans-50"/>
       <use x="63.623047" xlink:href="#DejaVuSans-48"/>
       <use x="127.246094" xlink:href="#DejaVuSans-49"/>
       <use x="190.869141" xlink:href="#DejaVuSans-50"/>
      </g>
     </g>
    </g>
    <g id="xtick_5">
     <g id="line2d_5">
      <g>
       <use style="stroke:#000000;stroke-width:0.8;" x="301.673917" xlink:href="#m476ca35877" y="252"/>
      </g>
     </g>
     <g id="text_5">
      <!-- 2016 -->
      <g transform="translate(288.948917 266.598437)scale(0.1 -0.1)">
       <defs>
        <path d="M 33.015625 40.375 
Q 26.375 40.375 22.484375 35.828125 
Q 18.609375 31.296875 18.609375 23.390625 
Q 18.609375 15.53125 22.484375 10.953125 
Q 26.375 6.390625 33.015625 6.390625 
Q 39.65625 6.390625 43.53125 10.953125 
Q 47.40625 15.53125 47.40625 23.390625 
Q 47.40625 31.296875 43.53125 35.828125 
Q 39.65625 40.375 33.015625 40.375 
z
M 52.59375 71.296875 
L 52.59375 62.3125 
Q 48.875 64.0625 45.09375 64.984375 
Q 41.3125 65.921875 37.59375 65.921875 
Q 27.828125 65.921875 22.671875 59.328125 
Q 17.53125 52.734375 16.796875 39.40625 
Q 19.671875 43.65625 24.015625 45.921875 
Q 28.375 48.1875 33.59375 48.1875 
Q 44.578125 48.1875 50.953125 41.515625 
Q 57.328125 34.859375 57.328125 23.390625 
Q 57.328125 12.15625 50.6875 5.359375 
Q 44.046875 -1.421875 33.015625 -1.421875 
Q 20.359375 -1.421875 13.671875 8.265625 
Q 6.984375 17.96875 6.984375 36.375 
Q 6.984375 53.65625 15.1875 63.9375 
Q 23.390625 74.21875 37.203125 74.21875 
Q 40.921875 74.21875 44.703125 73.484375 
Q 48.484375 72.75 52.59375 71.296875 
z
" id="DejaVuSans-54"/>
       </defs>
       <use xlink:href="#DejaVuSans-50"/>
       <use x="63.623047" xlink:href="#DejaVuSans-48"/>
       <use x="127.246094" xlink:href="#DejaVuSans-49"/>
       <use x="190.869141" xlink:href="#DejaVuSans-54"/>
      </g>
     </g>
    </g>
    <g id="xtick_6">
     <g id="line2d_6">
      <g>
       <use style="stroke:#000000;stroke-width:0.8;" x="359.877487" xlink:href="#m476ca35877" y="252"/>
      </g>
     </g>
     <g id="text_6">
      <!-- 2020 -->
      <g transform="translate(347.152487 266.598437)scale(0.1 -0.1)">
       <use xlink:href="#DejaVuSans-50"/>
       <use x="63.623047" xlink:href="#DejaVuSans-48"/>
       <use x="127.246094" xlink:href="#DejaVuSans-50"/>
       <use x="190.869141" xlink:href="#DejaVuSans-48"/>
      </g>
     </g>
    </g>
    <g id="text_7">
     <!-- Time in years -->
     <g transform="translate(187.670312 280.276563)scale(0.1 -0.1)">
      <defs>
       <path d="M -0.296875 72.90625 
L 61.375 72.90625 
L 61.375 64.59375 
L 35.5 64.59375 
L 35.5 0 
L 25.59375 0 
L 25.59375 64.59375 
L -0.296875 64.59375 
z
" id="DejaVuSans-84"/>
       <path d="M 9.421875 54.6875 
L 18.40625 54.6875 
L 18.40625 0 
L 9.421875 0 
z
M 9.421875 75.984375 
L 18.40625 75.984375 
L 18.40625 64.59375 
L 9.421875 64.59375 
z
" id="DejaVuSans-105"/>
       <path d="M 52 44.1875 
Q 55.375 50.25 60.0625 53.125 
Q 64.75 56 71.09375 56 
Q 79.640625 56 84.28125 50.015625 
Q 88.921875 44.046875 88.921875 33.015625 
L 88.921875 0 
L 79.890625 0 
L 79.890625 32.71875 
Q 79.890625 40.578125 77.09375 44.375 
Q 74.3125 48.1875 68.609375 48.1875 
Q 61.625 48.1875 57.5625 43.546875 
Q 53.515625 38.921875 53.515625 30.90625 
L 53.515625 0 
L 44.484375 0 
L 44.484375 32.71875 
Q 44.484375 40.625 41.703125 44.40625 
Q 38.921875 48.1875 33.109375 48.1875 
Q 26.21875 48.1875 22.15625 43.53125 
Q 18.109375 38.875 18.109375 30.90625 
L 18.109375 0 
L 9.078125 0 
L 9.078125 54.6875 
L 18.109375 54.6875 
L 18.109375 46.1875 
Q 21.1875 51.21875 25.484375 53.609375 
Q 29.78125 56 35.6875 56 
Q 41.65625 56 45.828125 52.96875 
Q 50 49.953125 52 44.1875 
z
" id="DejaVuSans-109"/>
       <path d="M 56.203125 29.59375 
L 56.203125 25.203125 
L 14.890625 25.203125 
Q 15.484375 15.921875 20.484375 11.0625 
Q 25.484375 6.203125 34.421875 6.203125 
Q 39.59375 6.203125 44.453125 7.46875 
Q 49.3125 8.734375 54.109375 11.28125 
L 54.109375 2.78125 
Q 49.265625 0.734375 44.1875 -0.34375 
Q 39.109375 -1.421875 33.890625 -1.421875 
Q 20.796875 -1.421875 13.15625 6.1875 
Q 5.515625 13.8125 5.515625 26.8125 
Q 5.515625 40.234375 12.765625 48.109375 
Q 20.015625 56 32.328125 56 
Q 43.359375 56 49.78125 48.890625 
Q 56.203125 41.796875 56.203125 29.59375 
z
M 47.21875 32.234375 
Q 47.125 39.59375 43.09375 43.984375 
Q 39.0625 48.390625 32.421875 48.390625 
Q 24.90625 48.390625 20.390625 44.140625 
Q 15.875 39.890625 15.1875 32.171875 
z
" id="DejaVuSans-101"/>
       <path id="DejaVuSans-32"/>
       <path d="M 54.890625 33.015625 
L 54.890625 0 
L 45.90625 0 
L 45.90625 32.71875 
Q 45.90625 40.484375 42.875 44.328125 
Q 39.84375 48.1875 33.796875 48.1875 
Q 26.515625 48.1875 22.3125 43.546875 
Q 18.109375 38.921875 18.109375 30.90625 
L 18.109375 0 
L 9.078125 0 
L 9.078125 54.6875 
L 18.109375 54.6875 
L 18.109375 46.1875 
Q 21.34375 51.125 25.703125 53.5625 
Q 30.078125 56 35.796875 56 
Q 45.21875 56 50.046875 50.171875 
Q 54.890625 44.34375 54.890625 33.015625 
z
" id="DejaVuSans-110"/>
       <path d="M 32.171875 -5.078125 
Q 28.375 -14.84375 24.75 -17.8125 
Q 21.140625 -20.796875 15.09375 -20.796875 
L 7.90625 -20.796875 
L 7.90625 -13.28125 
L 13.1875 -13.28125 
Q 16.890625 -13.28125 18.9375 -11.515625 
Q 21 -9.765625 23.484375 -3.21875 
L 25.09375 0.875 
L 2.984375 54.6875 
L 12.5 54.6875 
L 29.59375 11.921875 
L 46.6875 54.6875 
L 56.203125 54.6875 
z
" id="DejaVuSans-121"/>
       <path d="M 34.28125 27.484375 
Q 23.390625 27.484375 19.1875 25 
Q 14.984375 22.515625 14.984375 16.5 
Q 14.984375 11.71875 18.140625 8.90625 
Q 21.296875 6.109375 26.703125 6.109375 
Q 34.1875 6.109375 38.703125 11.40625 
Q 43.21875 16.703125 43.21875 25.484375 
L 43.21875 27.484375 
z
M 52.203125 31.203125 
L 52.203125 0 
L 43.21875 0 
L 43.21875 8.296875 
Q 40.140625 3.328125 35.546875 0.953125 
Q 30.953125 -1.421875 24.3125 -1.421875 
Q 15.921875 -1.421875 10.953125 3.296875 
Q 6 8.015625 6 15.921875 
Q 6 25.140625 12.171875 29.828125 
Q 18.359375 34.515625 30.609375 34.515625 
L 43.21875 34.515625 
L 43.21875 35.40625 
Q 43.21875 41.609375 39.140625 45 
Q 35.0625 48.390625 27.6875 48.390625 
Q 23 48.390625 18.546875 47.265625 
Q 14.109375 46.140625 10.015625 43.890625 
L 10.015625 52.203125 
Q 14.9375 54.109375 19.578125 55.046875 
Q 24.21875 56 28.609375 56 
Q 40.484375 56 46.34375 49.84375 
Q 52.203125 43.703125 52.203125 31.203125 
z
" id="DejaVuSans-97"/>
       <path d="M 41.109375 46.296875 
Q 39.59375 47.171875 37.8125 47.578125 
Q 36.03125 48 33.890625 48 
Q 26.265625 48 22.1875 43.046875 
Q 18.109375 38.09375 18.109375 28.8125 
L 18.109375 0 
L 9.078125 0 
L 9.078125 54.6875 
L 18.109375 54.6875 
L 18.109375 46.1875 
Q 20.953125 51.171875 25.484375 53.578125 
Q 30.03125 56 36.53125 56 
Q 37.453125 56 38.578125 55.875 
Q 39.703125 55.765625 41.0625 55.515625 
z
" id="DejaVuSans-114"/>
       <path d="M 44.28125 53.078125 
L 44.28125 44.578125 
Q 40.484375 46.53125 36.375 47.5 
Q 32.28125 48.484375 27.875 48.484375 
Q 21.1875 48.484375 17.84375 46.4375 
Q 14.5 44.390625 14.5 40.28125 
Q 14.5 37.15625 16.890625 35.375 
Q 19.28125 33.59375 26.515625 31.984375 
L 29.59375 31.296875 
Q 39.15625 29.25 43.1875 25.515625 
Q 47.21875 21.78125 47.21875 15.09375 
Q 47.21875 7.46875 41.1875 3.015625 
Q 35.15625 -1.421875 24.609375 -1.421875 
Q 20.21875 -1.421875 15.453125 -0.5625 
Q 10.6875 0.296875 5.421875 2 
L 5.421875 11.28125 
Q 10.40625 8.6875 15.234375 7.390625 
Q 20.0625 6.109375 24.8125 6.109375 
Q 31.15625 6.109375 34.5625 8.28125 
Q 37.984375 10.453125 37.984375 14.40625 
Q 37.984375 18.0625 35.515625 20.015625 
Q 33.0625 21.96875 24.703125 23.78125 
L 21.578125 24.515625 
Q 13.234375 26.265625 9.515625 29.90625 
Q 5.8125 33.546875 5.8125 39.890625 
Q 5.8125 47.609375 11.28125 51.796875 
Q 16.75 56 26.8125 56 
Q 31.78125 56 36.171875 55.265625 
Q 40.578125 54.546875 44.28125 53.078125 
z
" id="DejaVuSans-115"/>
      </defs>
      <use xlink:href="#DejaVuSans-84"/>
      <use x="57.958984" xlink:href="#DejaVuSans-105"/>
      <use x="85.742188" xlink:href="#DejaVuSans-109"/>
      <use x="183.154297" xlink:href="#DejaVuSans-101"/>
      <use x="244.677734" xlink:href="#DejaVuSans-32"/>
      <use x="276.464844" xlink:href="#DejaVuSans-105"/>
      <use x="304.248047" xlink:href="#DejaVuSans-110"/>
      <use x="367.626953" xlink:href="#DejaVuSans-32"/>
      <use x="399.414062" xlink:href="#DejaVuSans-121"/>
      <use x="458.59375" xlink:href="#DejaVuSans-101"/>
      <use x="520.117188" xlink:href="#DejaVuSans-97"/>
      <use x="581.396484" xlink:href="#DejaVuSans-114"/>
      <use x="622.509766" xlink:href="#DejaVuSans-115"/>
     </g>
    </g>
   </g>
   <g id="matplotlib.axis_2">
    <g id="ytick_1">
     <g id="line2d_7">
      <defs>
       <path d="M 0 0 
L -3.5 0 
" id="m180295aa1b" style="stroke:#000000;stroke-width:0.8;"/>
      </defs>
      <g>
       <use style="stroke:#000000;stroke-width:0.8;" x="54" xlink:href="#m180295aa1b" y="242.532254"/>
      </g>
     </g>
     <g id="text_8">
      <!-- 0 -->
      <g transform="translate(40.6375 246.331473)scale(0.1 -0.1)">
       <use xlink:href="#DejaVuSans-48"/>
      </g>
     </g>
    </g>
    <g id="ytick_2">
     <g id="line2d_8">
      <g>
       <use style="stroke:#000000;stroke-width:0.8;" x="54" xlink:href="#m180295aa1b" y="200.94321"/>
      </g>
     </g>
     <g id="text_9">
      <!-- 1000 -->
      <g transform="translate(21.55 204.742429)scale(0.1 -0.1)">
       <use xlink:href="#DejaVuSans-49"/>
       <use x="63.623047" xlink:href="#DejaVuSans-48"/>
       <use x="127.246094" xlink:href="#DejaVuSans-48"/>
       <use x="190.869141" xlink:href="#DejaVuSans-48"/>
      </g>
     </g>
    </g>
    <g id="ytick_3">
     <g id="line2d_9">
      <g>
       <use style="stroke:#000000;stroke-width:0.8;" x="54" xlink:href="#m180295aa1b" y="159.354166"/>
      </g>
     </g>
     <g id="text_10">
      <!-- 2000 -->
      <g transform="translate(21.55 163.153384)scale(0.1 -0.1)">
       <use xlink:href="#DejaVuSans-50"/>
       <use x="63.623047" xlink:href="#DejaVuSans-48"/>
       <use x="127.246094" xlink:href="#DejaVuSans-48"/>
       <use x="190.869141" xlink:href="#DejaVuSans-48"/>
      </g>
     </g>
    </g>
    <g id="ytick_4">
     <g id="line2d_10">
      <g>
       <use style="stroke:#000000;stroke-width:0.8;" x="54" xlink:href="#m180295aa1b" y="117.765121"/>
      </g>
     </g>
     <g id="text_11">
      <!-- 3000 -->
      <g transform="translate(21.55 121.56434)scale(0.1 -0.1)">
       <defs>
        <path d="M 40.578125 39.3125 
Q 47.65625 37.796875 51.625 33 
Q 55.609375 28.21875 55.609375 21.1875 
Q 55.609375 10.40625 48.1875 4.484375 
Q 40.765625 -1.421875 27.09375 -1.421875 
Q 22.515625 -1.421875 17.65625 -0.515625 
Q 12.796875 0.390625 7.625 2.203125 
L 7.625 11.71875 
Q 11.71875 9.328125 16.59375 8.109375 
Q 21.484375 6.890625 26.8125 6.890625 
Q 36.078125 6.890625 40.9375 10.546875 
Q 45.796875 14.203125 45.796875 21.1875 
Q 45.796875 27.640625 41.28125 31.265625 
Q 36.765625 34.90625 28.71875 34.90625 
L 20.21875 34.90625 
L 20.21875 43.015625 
L 29.109375 43.015625 
Q 36.375 43.015625 40.234375 45.921875 
Q 44.09375 48.828125 44.09375 54.296875 
Q 44.09375 59.90625 40.109375 62.90625 
Q 36.140625 65.921875 28.71875 65.921875 
Q 24.65625 65.921875 20.015625 65.03125 
Q 15.375 64.15625 9.8125 62.3125 
L 9.8125 71.09375 
Q 15.4375 72.65625 20.34375 73.4375 
Q 25.25 74.21875 29.59375 74.21875 
Q 40.828125 74.21875 47.359375 69.109375 
Q 53.90625 64.015625 53.90625 55.328125 
Q 53.90625 49.265625 50.4375 45.09375 
Q 46.96875 40.921875 40.578125 39.3125 
z
" id="DejaVuSans-51"/>
       </defs>
       <use xlink:href="#DejaVuSans-51"/>
       <use x="63.623047" xlink:href="#DejaVuSans-48"/>
       <use x="127.246094" xlink:href="#DejaVuSans-48"/>
       <use x="190.869141" xlink:href="#DejaVuSans-48"/>
      </g>
     </g>
    </g>
    <g id="ytick_5">
     <g id="line2d_11">
      <g>
       <use style="stroke:#000000;stroke-width:0.8;" x="54" xlink:href="#m180295aa1b" y="76.176077"/>
      </g>
     </g>
     <g id="text_12">
      <!-- 4000 -->
      <g transform="translate(21.55 79.975296)scale(0.1 -0.1)">
       <use xlink:href="#DejaVuSans-52"/>
       <use x="63.623047" xlink:href="#DejaVuSans-48"/>
       <use x="127.246094" xlink:href="#DejaVuSans-48"/>
       <use x="190.869141" xlink:href="#DejaVuSans-48"/>
      </g>
     </g>
    </g>
    <g id="ytick_6">
     <g id="line2d_12">
      <g>
       <use style="stroke:#000000;stroke-width:0.8;" x="54" xlink:href="#m180295aa1b" y="34.587033"/>
      </g>
     </g>
     <g id="text_13">
      <!-- 5000 -->
      <g transform="translate(21.55 38.386252)scale(0.1 -0.1)">
       <defs>
        <path d="M 10.796875 72.90625 
L 49.515625 72.90625 
L 49.515625 64.59375 
L 19.828125 64.59375 
L 19.828125 46.734375 
Q 21.96875 47.46875 24.109375 47.828125 
Q 26.265625 48.1875 28.421875 48.1875 
Q 40.625 48.1875 47.75 41.5 
Q 54.890625 34.8125 54.890625 23.390625 
Q 54.890625 11.625 47.5625 5.09375 
Q 40.234375 -1.421875 26.90625 -1.421875 
Q 22.3125 -1.421875 17.546875 -0.640625 
Q 12.796875 0.140625 7.71875 1.703125 
L 7.71875 11.625 
Q 12.109375 9.234375 16.796875 8.0625 
Q 21.484375 6.890625 26.703125 6.890625 
Q 35.15625 6.890625 40.078125 11.328125 
Q 45.015625 15.765625 45.015625 23.390625 
Q 45.015625 31 40.078125 35.4375 
Q 35.15625 39.890625 26.703125 39.890625 
Q 22.75 39.890625 18.8125 39.015625 
Q 14.890625 38.140625 10.796875 36.28125 
z
" id="DejaVuSans-53"/>
       </defs>
       <use xlink:href="#DejaVuSans-53"/>
       <use x="63.623047" xlink:href="#DejaVuSans-48"/>
       <use x="127.246094" xlink:href="#DejaVuSans-48"/>
       <use x="190.869141" xlink:href="#DejaVuSans-48"/>
      </g>
     </g>
    </g>
    <g id="text_14">
     <!-- Number of accidents -->
     <g transform="translate(15.470312 195.299531)rotate(-90)scale(0.1 -0.1)">
      <defs>
       <path d="M 9.8125 72.90625 
L 23.09375 72.90625 
L 55.421875 11.921875 
L 55.421875 72.90625 
L 64.984375 72.90625 
L 64.984375 0 
L 51.703125 0 
L 19.390625 60.984375 
L 19.390625 0 
L 9.8125 0 
z
" id="DejaVuSans-78"/>
       <path d="M 8.5 21.578125 
L 8.5 54.6875 
L 17.484375 54.6875 
L 17.484375 21.921875 
Q 17.484375 14.15625 20.5 10.265625 
Q 23.53125 6.390625 29.59375 6.390625 
Q 36.859375 6.390625 41.078125 11.03125 
Q 45.3125 15.671875 45.3125 23.6875 
L 45.3125 54.6875 
L 54.296875 54.6875 
L 54.296875 0 
L 45.3125 0 
L 45.3125 8.40625 
Q 42.046875 3.421875 37.71875 1 
Q 33.40625 -1.421875 27.6875 -1.421875 
Q 18.265625 -1.421875 13.375 4.4375 
Q 8.5 10.296875 8.5 21.578125 
z
M 31.109375 56 
z
" id="DejaVuSans-117"/>
       <path d="M 48.6875 27.296875 
Q 48.6875 37.203125 44.609375 42.84375 
Q 40.53125 48.484375 33.40625 48.484375 
Q 26.265625 48.484375 22.1875 42.84375 
Q 18.109375 37.203125 18.109375 27.296875 
Q 18.109375 17.390625 22.1875 11.75 
Q 26.265625 6.109375 33.40625 6.109375 
Q 40.53125 6.109375 44.609375 11.75 
Q 48.6875 17.390625 48.6875 27.296875 
z
M 18.109375 46.390625 
Q 20.953125 51.265625 25.265625 53.625 
Q 29.59375 56 35.59375 56 
Q 45.5625 56 51.78125 48.09375 
Q 58.015625 40.1875 58.015625 27.296875 
Q 58.015625 14.40625 51.78125 6.484375 
Q 45.5625 -1.421875 35.59375 -1.421875 
Q 29.59375 -1.421875 25.265625 0.953125 
Q 20.953125 3.328125 18.109375 8.203125 
L 18.109375 0 
L 9.078125 0 
L 9.078125 75.984375 
L 18.109375 75.984375 
z
" id="DejaVuSans-98"/>
       <path d="M 30.609375 48.390625 
Q 23.390625 48.390625 19.1875 42.75 
Q 14.984375 37.109375 14.984375 27.296875 
Q 14.984375 17.484375 19.15625 11.84375 
Q 23.34375 6.203125 30.609375 6.203125 
Q 37.796875 6.203125 41.984375 11.859375 
Q 46.1875 17.53125 46.1875 27.296875 
Q 46.1875 37.015625 41.984375 42.703125 
Q 37.796875 48.390625 30.609375 48.390625 
z
M 30.609375 56 
Q 42.328125 56 49.015625 48.375 
Q 55.71875 40.765625 55.71875 27.296875 
Q 55.71875 13.875 49.015625 6.21875 
Q 42.328125 -1.421875 30.609375 -1.421875 
Q 18.84375 -1.421875 12.171875 6.21875 
Q 5.515625 13.875 5.515625 27.296875 
Q 5.515625 40.765625 12.171875 48.375 
Q 18.84375 56 30.609375 56 
z
" id="DejaVuSans-111"/>
       <path d="M 37.109375 75.984375 
L 37.109375 68.5 
L 28.515625 68.5 
Q 23.6875 68.5 21.796875 66.546875 
Q 19.921875 64.59375 19.921875 59.515625 
L 19.921875 54.6875 
L 34.71875 54.6875 
L 34.71875 47.703125 
L 19.921875 47.703125 
L 19.921875 0 
L 10.890625 0 
L 10.890625 47.703125 
L 2.296875 47.703125 
L 2.296875 54.6875 
L 10.890625 54.6875 
L 10.890625 58.5 
Q 10.890625 67.625 15.140625 71.796875 
Q 19.390625 75.984375 28.609375 75.984375 
z
" id="DejaVuSans-102"/>
       <path d="M 48.78125 52.59375 
L 48.78125 44.1875 
Q 44.96875 46.296875 41.140625 47.34375 
Q 37.3125 48.390625 33.40625 48.390625 
Q 24.65625 48.390625 19.8125 42.84375 
Q 14.984375 37.3125 14.984375 27.296875 
Q 14.984375 17.28125 19.8125 11.734375 
Q 24.65625 6.203125 33.40625 6.203125 
Q 37.3125 6.203125 41.140625 7.25 
Q 44.96875 8.296875 48.78125 10.40625 
L 48.78125 2.09375 
Q 45.015625 0.34375 40.984375 -0.53125 
Q 36.96875 -1.421875 32.421875 -1.421875 
Q 20.0625 -1.421875 12.78125 6.34375 
Q 5.515625 14.109375 5.515625 27.296875 
Q 5.515625 40.671875 12.859375 48.328125 
Q 20.21875 56 33.015625 56 
Q 37.15625 56 41.109375 55.140625 
Q 45.0625 54.296875 48.78125 52.59375 
z
" id="DejaVuSans-99"/>
       <path d="M 45.40625 46.390625 
L 45.40625 75.984375 
L 54.390625 75.984375 
L 54.390625 0 
L 45.40625 0 
L 45.40625 8.203125 
Q 42.578125 3.328125 38.25 0.953125 
Q 33.9375 -1.421875 27.875 -1.421875 
Q 17.96875 -1.421875 11.734375 6.484375 
Q 5.515625 14.40625 5.515625 27.296875 
Q 5.515625 40.1875 11.734375 48.09375 
Q 17.96875 56 27.875 56 
Q 33.9375 56 38.25 53.625 
Q 42.578125 51.265625 45.40625 46.390625 
z
M 14.796875 27.296875 
Q 14.796875 17.390625 18.875 11.75 
Q 22.953125 6.109375 30.078125 6.109375 
Q 37.203125 6.109375 41.296875 11.75 
Q 45.40625 17.390625 45.40625 27.296875 
Q 45.40625 37.203125 41.296875 42.84375 
Q 37.203125 48.484375 30.078125 48.484375 
Q 22.953125 48.484375 18.875 42.84375 
Q 14.796875 37.203125 14.796875 27.296875 
z
" id="DejaVuSans-100"/>
       <path d="M 18.3125 70.21875 
L 18.3125 54.6875 
L 36.8125 54.6875 
L 36.8125 47.703125 
L 18.3125 47.703125 
L 18.3125 18.015625 
Q 18.3125 11.328125 20.140625 9.421875 
Q 21.96875 7.515625 27.59375 7.515625 
L 36.8125 7.515625 
L 36.8125 0 
L 27.59375 0 
Q 17.1875 0 13.234375 3.875 
Q 9.28125 7.765625 9.28125 18.015625 
L 9.28125 47.703125 
L 2.6875 47.703125 
L 2.6875 54.6875 
L 9.28125 54.6875 
L 9.28125 70.21875 
z
" id="DejaVuSans-116"/>
      </defs>
      <use xlink:href="#DejaVuSans-78"/>
      <use x="74.804688" xlink:href="#DejaVuSans-117"/>
      <use x="138.183594" xlink:href="#DejaVuSans-109"/>
      <use x="235.595703" xlink:href="#DejaVuSans-98"/>
      <use x="299.072266" xlink:href="#DejaVuSans-101"/>
      <use x="360.595703" xlink:href="#DejaVuSans-114"/>
      <use x="401.708984" xlink:href="#DejaVuSans-32"/>
      <use x="433.496094" xlink:href="#DejaVuSans-111"/>
      <use x="494.677734" xlink:href="#DejaVuSans-102"/>
      <use x="529.882812" xlink:href="#DejaVuSans-32"/>
      <use x="561.669922" xlink:href="#DejaVuSans-97"/>
      <use x="622.949219" xlink:href="#DejaVuSans-99"/>
      <use x="677.929688" xlink:href="#DejaVuSans-99"/>
      <use x="732.910156" xlink:href="#DejaVuSans-105"/>
      <use x="760.693359" xlink:href="#DejaVuSans-100"/>
      <use x="824.169922" xlink:href="#DejaVuSans-101"/>
      <use x="885.693359" xlink:href="#DejaVuSans-110"/>
      <use x="949.072266" xlink:href="#DejaVuSans-116"/>
      <use x="988.28125" xlink:href="#DejaVuSans-115"/>
     </g>
    </g>
   </g>
   <g id="line2d_13">
    <path clip-path="url(#p5ae75f8ab5)" d="M 69.218182 239.288309 
L 70.453165 240.328035 
L 71.608472 239.496254 
L 72.843455 239.288309 
L 74.038601 238.539706 
L 75.273584 240.161679 
L 76.468729 238.414939 
L 77.703713 239.329898 
L 78.938696 239.038774 
L 80.133841 239.080363 
L 81.368824 239.579432 
L 82.56397 238.997185 
L 85.033936 240.494391 
L 86.149405 239.912144 
L 87.384388 239.704199 
L 88.579534 238.997185 
L 89.814517 239.704199 
L 91.009662 239.579432 
L 92.244645 240.036911 
L 93.479629 238.082226 
L 94.674774 239.329898 
L 95.909757 239.704199 
L 97.104902 239.787377 
L 98.339886 240.702336 
L 99.574869 240.494391 
L 100.690338 239.995322 
L 101.925321 239.828966 
L 103.120466 240.12009 
L 104.35545 239.454665 
L 105.550595 239.038774 
L 106.785578 239.579432 
L 108.020562 238.082226 
L 109.215707 239.080363 
L 110.45069 240.702336 
L 111.645835 239.912144 
L 112.880819 240.244857 
L 114.115802 240.702336 
L 115.231271 240.328035 
L 116.466254 240.452802 
L 118.896383 239.121952 
L 120.091528 239.371487 
L 121.326511 239.787377 
L 122.561495 239.912144 
L 123.75664 239.454665 
L 124.991623 240.702336 
L 126.186768 240.12009 
L 127.421752 240.785514 
L 128.656735 240.53598 
L 129.812042 240.702336 
L 131.047025 240.993459 
L 132.24217 240.244857 
L 133.477154 240.12009 
L 134.672299 239.745788 
L 135.907282 240.12009 
L 137.142266 239.24672 
L 138.337411 239.704199 
L 139.572394 240.411213 
L 140.767539 240.369624 
L 142.002523 240.53598 
L 143.237506 240.868692 
L 145.587958 240.868692 
L 149.213232 239.912144 
L 150.448215 240.53598 
L 151.683198 239.371487 
L 152.878344 240.161679 
L 154.113327 240.785514 
L 155.308472 240.827103 
L 156.543455 240.702336 
L 157.778439 240.452802 
L 158.893908 240.868692 
L 160.128891 240.868692 
L 161.324036 240.328035 
L 162.55902 240.411213 
L 163.754165 239.870555 
L 164.989148 240.53598 
L 166.224131 239.870555 
L 167.419277 240.660747 
L 169.849405 240.369624 
L 171.084388 241.035048 
L 172.319372 241.201405 
L 173.434841 240.95187 
L 174.669824 240.494391 
L 175.864969 239.912144 
L 177.099952 240.411213 
L 178.295098 239.828966 
L 179.530081 240.702336 
L 180.765064 240.286446 
L 181.960209 240.244857 
L 183.195193 241.035048 
L 184.390338 240.993459 
L 185.625321 241.201405 
L 189.250595 241.492528 
L 190.44574 240.161679 
L 191.680723 240.203268 
L 192.875869 240.369624 
L 194.110852 240.702336 
L 195.345835 240.494391 
L 196.54098 240.660747 
L 197.775964 241.40935 
L 198.971109 241.076638 
L 200.206092 241.575706 
L 201.441076 241.201405 
L 202.556545 241.950007 
L 203.791528 240.660747 
L 204.986673 240.161679 
L 206.221656 241.242994 
L 207.416802 240.702336 
L 208.651785 241.076638 
L 209.886768 240.494391 
L 211.081913 241.076638 
L 212.316897 241.242994 
L 213.512042 241.118227 
L 214.747025 241.742062 
L 215.982009 241.575706 
L 217.097477 241.242994 
L 220.762589 240.910281 
L 221.957734 240.53598 
L 223.192718 240.868692 
L 224.427701 240.286446 
L 225.622846 241.40935 
L 226.85783 241.367761 
L 229.287958 241.492528 
L 230.522941 241.492528 
L 231.63841 241.617295 
L 232.873394 240.743925 
L 234.068539 240.743925 
L 235.303522 241.40935 
L 236.498667 240.910281 
L 237.733651 241.118227 
L 238.968634 241.035048 
L 240.163779 241.450939 
L 241.398762 240.868692 
L 242.593908 240.993459 
L 243.828891 241.658884 
L 245.063874 241.783651 
L 246.219181 241.658884 
L 247.454165 241.118227 
L 248.64931 240.286446 
L 249.884293 240.743925 
L 251.079438 240.203268 
L 252.314422 240.244857 
L 253.549405 240.494391 
L 254.74455 241.201405 
L 257.174679 241.40935 
L 258.409662 241.82524 
L 259.644645 241.908418 
L 263.190243 241.159816 
L 265.620371 240.785514 
L 266.855355 240.910281 
L 268.090338 240.577569 
L 269.285483 241.242994 
L 270.520466 241.076638 
L 271.715612 241.201405 
L 272.950595 241.658884 
L 274.185578 241.82524 
L 275.301047 240.993459 
L 276.53603 241.076638 
L 277.731176 241.367761 
L 280.161304 241.076638 
L 281.396287 241.201405 
L 282.631271 240.743925 
L 283.826416 241.035048 
L 285.061399 240.785514 
L 286.256545 241.492528 
L 287.491528 241.617295 
L 289.84198 241.575706 
L 291.076963 241.326172 
L 292.272109 240.452802 
L 293.507092 240.910281 
L 294.702237 240.494391 
L 295.93722 240.494391 
L 297.172204 240.660747 
L 298.367349 241.492528 
L 299.602332 241.284583 
L 300.797477 241.40935 
L 302.032461 241.658884 
L 303.267444 242.116364 
L 304.422751 241.700473 
L 305.657734 241.40935 
L 306.85288 241.492528 
L 309.283008 241.076638 
L 310.517991 241.118227 
L 311.752975 241.326172 
L 312.94812 241.284583 
L 314.183103 241.700473 
L 317.848215 241.617295 
L 318.963684 241.035048 
L 320.198667 241.450939 
L 321.393812 241.326172 
L 323.823941 240.369624 
L 325.058924 241.284583 
L 326.293908 240.577569 
L 327.489053 241.201405 
L 328.724036 241.159816 
L 329.919181 240.785514 
L 331.154165 241.617295 
L 332.389148 241.534117 
L 333.504617 241.201405 
L 334.7396 241.492528 
L 335.934745 241.118227 
L 337.169729 240.910281 
L 338.364874 240.411213 
L 339.599857 240.868692 
L 340.834841 241.035048 
L 342.029986 240.743925 
L 344.460114 241.658884 
L 345.695098 241.617295 
L 348.04555 241.118227 
L 351.710662 240.868692 
L 352.905807 240.53598 
L 354.14079 241.242994 
L 355.375773 240.577569 
L 356.570919 240.660747 
L 357.805902 241.326172 
L 359.001047 241.076638 
L 360.23603 241.367761 
L 361.471014 240.868692 
L 362.626321 241.40935 
L 363.861304 241.450939 
L 365.056449 240.868692 
L 367.486578 240.12009 
L 368.721561 240.619158 
L 369.956545 240.619158 
L 372.386673 241.575706 
L 373.581818 241.991597 
L 373.581818 241.991597 
" style="fill:none;stroke:#1f77b4;stroke-linecap:square;stroke-width:1.5;"/>
   </g>
   <g id="line2d_14">
    <path clip-path="url(#p5ae75f8ab5)" d="M 69.218182 207.805402 
L 70.453165 205.518005 
L 71.608472 202.024525 
L 72.843455 207.846991 
L 74.038601 197.366552 
L 75.273584 207.514279 
L 76.468729 196.701127 
L 77.703713 205.892306 
L 80.133841 197.699264 
L 81.368824 200.236196 
L 82.56397 203.022662 
L 83.798953 206.308197 
L 85.033936 208.429238 
L 86.149405 202.523594 
L 87.384388 205.226881 
L 88.579534 197.574497 
L 89.814517 204.894169 
L 91.009662 198.988525 
L 92.244645 208.678772 
L 93.479629 202.897895 
L 94.674774 196.617949 
L 95.909757 200.901621 
L 97.104902 203.396963 
L 98.339886 207.098388 
L 99.574869 208.554005 
L 100.690338 205.226881 
L 101.925321 209.926443 
L 103.120466 206.890443 
L 104.35545 201.483867 
L 105.550595 199.861895 
L 106.785578 209.884854 
L 108.020562 199.321237 
L 109.215707 200.153018 
L 110.45069 205.850717 
L 111.645835 213.170389 
L 112.880819 211.465238 
L 114.115802 218.743321 
L 115.231271 207.01521 
L 116.466254 207.431101 
L 117.661399 210.799813 
L 118.896383 206.973621 
L 120.091528 219.159211 
L 121.326511 213.503101 
L 122.561495 203.230607 
L 123.75664 202.606772 
L 124.991623 202.897895 
L 126.186768 206.848854 
L 127.421752 208.096525 
L 128.656735 212.463375 
L 129.812042 208.554005 
L 131.047025 206.14184 
L 133.477154 206.807265 
L 134.672299 202.190881 
L 135.907282 209.926443 
L 137.142266 202.731539 
L 138.337411 200.028251 
L 139.572394 204.977347 
L 140.767539 203.355374 
L 142.002523 211.38206 
L 143.237506 202.565183 
L 144.352975 196.16047 
L 145.587958 203.56332 
L 146.783103 205.018936 
L 148.018087 205.060525 
L 149.213232 202.981073 
L 150.448215 208.803539 
L 151.683198 197.366552 
L 154.113327 207.389512 
L 155.308472 208.554005 
L 156.543455 213.087211 
L 157.778439 213.503101 
L 158.893908 195.203922 
L 160.128891 211.340471 
L 161.324036 222.735869 
L 162.55902 219.034444 
L 163.754165 207.389512 
L 164.989148 210.342334 
L 166.224131 212.67132 
L 167.419277 217.620417 
L 168.65426 221.987266 
L 169.849405 206.59932 
L 171.084388 213.461512 
L 172.319372 217.079759 
L 173.434841 225.439157 
L 174.669824 208.387649 
L 175.864969 206.848854 
L 177.099952 209.094663 
L 178.295098 203.646498 
L 179.530081 210.96617 
L 180.765064 209.385786 
L 181.960209 206.225018 
L 183.195193 206.432964 
L 184.390338 213.835814 
L 185.625321 212.297019 
L 186.860305 209.552142 
L 188.015612 210.799813 
L 189.250595 207.722224 
L 190.44574 206.308197 
L 191.680723 206.807265 
L 192.875869 207.930169 
L 194.110852 210.92458 
L 195.345835 211.465238 
L 196.54098 206.183429 
L 197.775964 216.539101 
L 198.971109 215.208252 
L 200.206092 221.238663 
L 201.441076 209.177841 
L 202.556545 217.287704 
L 203.791528 210.259156 
L 204.986673 210.591868 
L 206.221656 214.334882 
L 207.416802 201.317511 
L 208.651785 211.257293 
L 209.886768 207.347923 
L 211.081913 202.897895 
L 212.316897 207.805402 
L 213.512042 211.465238 
L 214.747025 217.03817 
L 215.982009 214.126937 
L 217.097477 208.054936 
L 218.332461 203.521731 
L 219.527606 211.631594 
L 220.762589 208.678772 
L 221.957734 203.771265 
L 223.192718 209.510553 
L 224.427701 202.814717 
L 225.622846 204.686224 
L 226.85783 208.138114 
L 228.052975 206.724087 
L 229.287958 212.338608 
L 230.522941 210.92458 
L 231.63841 205.809128 
L 232.873394 207.805402 
L 234.068539 199.529182 
L 235.303522 209.968032 
L 236.498667 202.981073 
L 237.733651 209.676909 
L 238.968634 204.85258 
L 240.163779 204.43669 
L 241.398762 207.514279 
L 242.593908 207.930169 
L 243.828891 212.879266 
L 245.063874 212.837676 
L 246.219181 203.189018 
L 247.454165 204.311922 
L 248.64931 199.487593 
L 251.079438 199.071703 
L 252.314422 205.642772 
L 253.549405 204.228744 
L 254.74455 197.200196 
L 255.979534 201.608635 
L 257.174679 208.845128 
L 258.409662 209.427375 
L 259.644645 210.383923 
L 260.760114 204.85258 
L 261.995098 199.362826 
L 263.190243 207.264745 
L 264.425226 198.655812 
L 265.620371 195.203922 
L 266.855355 209.63532 
L 268.090338 200.94321 
L 269.285483 197.865621 
L 270.520466 203.480142 
L 271.715612 208.096525 
L 272.950595 210.175978 
L 274.185578 211.673183 
L 275.301047 201.234333 
L 276.53603 203.189018 
L 277.731176 204.062388 
L 278.966159 205.933895 
L 280.161304 199.737128 
L 281.396287 209.177841 
L 282.631271 203.604909 
L 283.826416 199.19647 
L 285.061399 203.313785 
L 286.256545 208.013347 
L 287.491528 210.051211 
L 288.726511 212.879266 
L 289.84198 204.769402 
L 291.076963 202.357237 
L 292.272109 203.438552 
L 293.507092 202.939484 
L 294.702237 193.623538 
L 295.93722 206.59932 
L 297.172204 200.652087 
L 298.367349 196.368415 
L 299.602332 201.317511 
L 300.797477 203.022662 
L 302.032461 210.217567 
L 303.267444 210.300745 
L 304.422751 205.185292 
L 305.657734 201.026388 
L 306.85288 207.181566 
L 308.087863 200.194607 
L 309.283008 196.992251 
L 310.517991 202.68995 
L 311.752975 202.68995 
L 312.94812 200.028251 
L 314.183103 202.606772 
L 315.378248 206.349786 
L 316.613232 213.835814 
L 317.848215 207.347923 
L 318.963684 198.447867 
L 320.198667 205.310059 
L 321.393812 198.031977 
L 322.628796 203.10584 
L 323.823941 198.281511 
L 325.058924 207.971758 
L 326.293908 200.568908 
L 327.489053 198.78058 
L 328.724036 204.062388 
L 329.919181 206.225018 
L 331.154165 206.765676 
L 332.389148 210.342334 
L 333.504617 202.856306 
L 334.7396 200.527319 
L 335.934745 201.192744 
L 337.169729 199.529182 
L 338.364874 194.663264 
L 339.599857 208.720361 
L 340.834841 196.701127 
L 342.029986 195.661401 
L 343.264969 203.896032 
L 344.460114 205.102114 
L 345.695098 203.97921 
L 346.930081 205.809128 
L 348.04555 200.735265 
L 349.280533 202.315648 
L 350.475678 200.360963 
L 351.710662 201.192744 
L 352.905807 193.166059 
L 354.14079 208.429238 
L 355.375773 201.109566 
L 356.570919 197.283374 
L 357.805902 202.315648 
L 359.001047 204.062388 
L 360.23603 209.63532 
L 361.471014 206.349786 
L 363.861304 217.287704 
L 365.056449 206.807265 
L 366.291433 204.894169 
L 367.486578 200.527319 
L 368.721561 211.964307 
L 369.956545 203.10584 
L 371.15169 201.067977 
L 372.386673 206.59932 
L 373.581818 213.669457 
L 373.581818 213.669457 
" style="fill:none;stroke:#ff7f0e;stroke-linecap:square;stroke-width:1.5;"/>
   </g>
   <g id="line2d_15">
    <path clip-path="url(#p5ae75f8ab5)" d="M 69.218182 99.13323 
L 70.453165 110.237504 
L 71.608472 85.2009 
L 72.843455 104.581394 
L 74.038601 71.060625 
L 75.273584 104.082326 
L 76.468729 64.447967 
L 77.703713 101.670161 
L 78.938696 84.202763 
L 80.133841 71.310159 
L 81.368824 79.045721 
L 82.56397 84.951365 
L 83.798953 103.292134 
L 85.033936 111.609943 
L 86.149405 77.423748 
L 87.384388 94.267311 
L 88.579534 70.852679 
L 89.814517 88.028955 
L 91.009662 64.198432 
L 92.244645 103.167367 
L 93.479629 78.713009 
L 94.674774 65.778816 
L 95.909757 75.261118 
L 97.104902 76.633557 
L 98.339886 115.145012 
L 99.574869 122.256738 
L 100.690338 101.961285 
L 101.925321 111.859477 
L 103.120466 87.36353 
L 104.35545 93.393941 
L 105.550595 77.839639 
L 106.785578 117.473998 
L 109.215707 82.040132 
L 110.45069 95.764517 
L 111.645835 116.808573 
L 112.880819 114.729121 
L 114.115802 119.095971 
L 115.231271 115.269779 
L 116.466254 113.356683 
L 117.661399 107.159915 
L 118.896383 111.984244 
L 120.091528 104.415038 
L 121.326511 124.544136 
L 122.561495 101.420627 
L 123.75664 91.522434 
L 124.991623 104.248682 
L 126.186768 95.847695 
L 127.421752 119.054382 
L 128.656735 129.077341 
L 129.812042 106.49449 
L 131.047025 110.154326 
L 132.24217 102.044463 
L 133.477154 108.24123 
L 134.672299 86.157448 
L 135.907282 120.842711 
L 137.142266 90.191585 
L 138.337411 87.987366 
L 139.572394 99.09164 
L 140.767539 84.826598 
L 142.002523 126.581999 
L 143.237506 98.592572 
L 144.352975 94.475257 
L 145.587958 104.456627 
L 146.783103 104.415038 
L 148.018087 97.012188 
L 149.213232 91.522434 
L 150.448215 119.220738 
L 151.683198 79.461612 
L 152.878344 96.845832 
L 154.113327 109.239367 
L 155.308472 94.932736 
L 156.543455 122.215149 
L 157.778439 121.882437 
L 158.893908 69.313885 
L 160.128891 123.005341 
L 161.324036 116.434272 
L 162.55902 123.878711 
L 163.754165 92.354215 
L 164.989148 118.056245 
L 166.224131 108.074874 
L 167.419277 105.870655 
L 168.65426 114.729121 
L 169.849405 100.339312 
L 171.084388 128.786218 
L 172.319372 132.61241 
L 173.434841 124.585725 
L 174.669824 105.62112 
L 175.864969 95.764517 
L 177.099952 108.407586 
L 178.295098 91.896736 
L 179.530081 120.135697 
L 180.765064 100.547257 
L 181.960209 88.860736 
L 185.625321 120.052519 
L 186.860305 110.653395 
L 188.015612 121.508135 
L 189.250595 103.666435 
L 190.44574 99.96501 
L 191.680723 102.210819 
L 192.875869 96.970599 
L 194.110852 123.171697 
L 196.54098 89.359804 
L 197.775964 118.472135 
L 198.971109 122.423094 
L 200.206092 139.308246 
L 201.441076 97.80238 
L 202.556545 128.411917 
L 203.791528 119.719806 
L 204.986673 107.783751 
L 206.221656 122.922163 
L 207.416802 91.896736 
L 208.651785 128.203971 
L 209.886768 107.284682 
L 211.081913 94.184133 
L 212.316897 105.537942 
L 213.512042 109.364134 
L 214.747025 144.964356 
L 215.982009 136.937671 
L 217.097477 104.914107 
L 218.332461 109.364134 
L 219.527606 118.846437 
L 220.762589 109.738436 
L 221.957734 88.153722 
L 223.192718 124.294601 
L 224.427701 95.972462 
L 225.622846 96.970599 
L 226.85783 104.082326 
L 228.052975 100.588846 
L 229.287958 127.122656 
L 230.522941 121.799259 
L 231.63841 96.014051 
L 232.873394 95.764517 
L 234.068539 70.228844 
L 235.303522 108.948244 
L 236.498667 73.098488 
L 237.733651 104.373449 
L 238.968634 87.405119 
L 240.163779 83.246215 
L 241.398762 94.184133 
L 242.593908 96.721065 
L 243.828891 110.44545 
L 245.063874 113.523039 
L 246.219181 87.030818 
L 247.454165 90.025229 
L 248.64931 71.434926 
L 249.884293 75.427474 
L 251.079438 64.489556 
L 252.314422 98.966873 
L 253.549405 77.756461 
L 254.74455 70.104077 
L 255.979534 82.871913 
L 257.174679 101.337449 
L 258.409662 104.622983 
L 259.644645 98.343038 
L 260.760114 88.153722 
L 261.995098 75.843365 
L 263.190243 88.528023 
L 264.425226 64.364789 
L 265.620371 49.5175 
L 266.855355 101.670161 
L 268.090338 70.769501 
L 269.285483 54.009117 
L 270.520466 74.387748 
L 271.715612 85.991092 
L 272.950595 100.713613 
L 274.185578 104.664572 
L 275.301047 75.053173 
L 276.53603 82.830324 
L 277.731176 61.786268 
L 278.966159 83.121448 
L 280.161304 57.752131 
L 281.396287 102.002874 
L 282.631271 70.478378 
L 283.826416 65.737227 
L 285.061399 80.168625 
L 286.256545 79.54479 
L 287.491528 104.207093 
L 288.726511 114.022107 
L 289.84198 80.83405 
L 291.076963 75.261118 
L 292.272109 79.711146 
L 293.507092 80.41816 
L 294.702237 45.857664 
L 295.93722 99.840243 
L 297.172204 75.552241 
L 298.367349 56.753993 
L 299.602332 76.508789 
L 300.797477 81.915365 
L 302.032461 105.413175 
L 303.267444 101.836517 
L 304.422751 90.607475 
L 305.657734 67.483967 
L 306.85288 83.121448 
L 308.087863 65.362926 
L 309.283008 56.296514 
L 310.517991 101.129504 
L 311.752975 64.156843 
L 312.94812 63.824131 
L 315.378248 88.65279 
L 316.613232 104.456627 
L 317.848215 108.490764 
L 318.963684 71.767638 
L 320.198667 95.598161 
L 321.393812 63.117117 
L 322.628796 83.745283 
L 323.823941 61.411966 
L 325.058924 106.660847 
L 326.293908 75.469063 
L 327.489053 67.941446 
L 328.724036 84.119585 
L 329.919181 97.220134 
L 331.154165 104.123915 
L 332.389148 113.231916 
L 333.504617 84.660242 
L 334.7396 75.510652 
L 335.934745 78.130762 
L 337.169729 64.364789 
L 338.364874 53.42687 
L 339.599857 109.197778 
L 340.834841 71.019036 
L 342.029986 56.712404 
L 343.264969 75.053173 
L 344.460114 94.891147 
L 345.695098 99.465942 
L 346.930081 99.382764 
L 348.04555 78.67142 
L 349.280533 85.284078 
L 350.475678 74.262981 
L 351.710662 87.529886 
L 352.905807 44.443636 
L 354.14079 108.865066 
L 355.375773 74.429337 
L 356.570919 61.70309 
L 357.805902 84.285941 
L 360.23603 111.984244 
L 361.471014 106.49449 
L 362.626321 125.043204 
L 363.861304 148.915315 
L 365.056449 109.738436 
L 366.291433 101.961285 
L 367.486578 74.886817 
L 368.721561 117.473998 
L 369.956545 90.357941 
L 371.15169 81.70742 
L 372.386673 111.526765 
L 373.581818 131.863807 
L 373.581818 131.863807 
" style="fill:none;stroke:#2ca02c;stroke-linecap:square;stroke-width:1.5;"/>
   </g>
   <g id="patch_3">
    <path d="M 54 252 
L 54 34.56 
" style="fill:none;stroke:#000000;stroke-linecap:square;stroke-linejoin:miter;stroke-width:0.8;"/>
   </g>
   <g id="patch_4">
    <path d="M 388.8 252 
L 388.8 34.56 
" style="fill:none;stroke:#000000;stroke-linecap:square;stroke-linejoin:miter;stroke-width:0.8;"/>
   </g>
   <g id="patch_5">
    <path d="M 54 252 
L 388.8 252 
" style="fill:none;stroke:#000000;stroke-linecap:square;stroke-linejoin:miter;stroke-width:0.8;"/>
   </g>
   <g id="patch_6">
    <path d="M 54 34.56 
L 388.8 34.56 
" style="fill:none;stroke:#000000;stroke-linecap:square;stroke-linejoin:miter;stroke-width:0.8;"/>
   </g>
   <g id="text_15">
    <!-- Historically data accidents -->
    <g transform="translate(142.025625 28.56)scale(0.12 -0.12)">
     <defs>
      <path d="M 9.8125 72.90625 
L 19.671875 72.90625 
L 19.671875 43.015625 
L 55.515625 43.015625 
L 55.515625 72.90625 
L 65.375 72.90625 
L 65.375 0 
L 55.515625 0 
L 55.515625 34.71875 
L 19.671875 34.71875 
L 19.671875 0 
L 9.8125 0 
z
" id="DejaVuSans-72"/>
      <path d="M 9.421875 75.984375 
L 18.40625 75.984375 
L 18.40625 0 
L 9.421875 0 
z
" id="DejaVuSans-108"/>
     </defs>
     <use xlink:href="#DejaVuSans-72"/>
     <use x="75.195312" xlink:href="#DejaVuSans-105"/>
     <use x="102.978516" xlink:href="#DejaVuSans-115"/>
     <use x="155.078125" xlink:href="#DejaVuSans-116"/>
     <use x="194.287109" xlink:href="#DejaVuSans-111"/>
     <use x="255.46875" xlink:href="#DejaVuSans-114"/>
     <use x="296.582031" xlink:href="#DejaVuSans-105"/>
     <use x="324.365234" xlink:href="#DejaVuSans-99"/>
     <use x="379.345703" xlink:href="#DejaVuSans-97"/>
     <use x="440.625" xlink:href="#DejaVuSans-108"/>
     <use x="468.408203" xlink:href="#DejaVuSans-108"/>
     <use x="496.191406" xlink:href="#DejaVuSans-121"/>
     <use x="555.371094" xlink:href="#DejaVuSans-32"/>
     <use x="587.158203" xlink:href="#DejaVuSans-100"/>
     <use x="650.634766" xlink:href="#DejaVuSans-97"/>
     <use x="711.914062" xlink:href="#DejaVuSans-116"/>
     <use x="751.123047" xlink:href="#DejaVuSans-97"/>
     <use x="812.402344" xlink:href="#DejaVuSans-32"/>
     <use x="844.189453" xlink:href="#DejaVuSans-97"/>
     <use x="905.46875" xlink:href="#DejaVuSans-99"/>
     <use x="960.449219" xlink:href="#DejaVuSans-99"/>
     <use x="1015.429688" xlink:href="#DejaVuSans-105"/>
     <use x="1043.212891" xlink:href="#DejaVuSans-100"/>
     <use x="1106.689453" xlink:href="#DejaVuSans-101"/>
     <use x="1168.212891" xlink:href="#DejaVuSans-110"/>
     <use x="1231.591797" xlink:href="#DejaVuSans-116"/>
     <use x="1270.800781" xlink:href="#DejaVuSans-115"/>
    </g>
   </g>
   <g id="legend_1">
    <g id="patch_7">
     <path d="M 272.198438 166.797188 
L 381.8 166.797188 
Q 383.8 166.797188 383.8 164.797188 
L 383.8 121.762812 
Q 383.8 119.762812 381.8 119.762812 
L 272.198438 119.762812 
Q 270.198438 119.762812 270.198438 121.762812 
L 270.198438 164.797188 
Q 270.198438 166.797188 272.198438 166.797188 
z
" style="fill:#ffffff;opacity:0.8;stroke:#cccccc;stroke-linejoin:miter;"/>
    </g>
    <g id="line2d_16">
     <path d="M 274.198438 127.86125 
L 294.198438 127.86125 
" style="fill:none;stroke:#1f77b4;stroke-linecap:square;stroke-width:1.5;"/>
    </g>
    <g id="line2d_17"/>
    <g id="text_16">
     <!-- Alkoholunfälle -->
     <g transform="translate(302.198438 131.36125)scale(0.1 -0.1)">
      <defs>
       <path d="M 34.1875 63.1875 
L 20.796875 26.90625 
L 47.609375 26.90625 
z
M 28.609375 72.90625 
L 39.796875 72.90625 
L 67.578125 0 
L 57.328125 0 
L 50.6875 18.703125 
L 17.828125 18.703125 
L 11.1875 0 
L 0.78125 0 
z
" id="DejaVuSans-65"/>
       <path d="M 9.078125 75.984375 
L 18.109375 75.984375 
L 18.109375 31.109375 
L 44.921875 54.6875 
L 56.390625 54.6875 
L 27.390625 29.109375 
L 57.625 0 
L 45.90625 0 
L 18.109375 26.703125 
L 18.109375 0 
L 9.078125 0 
z
" id="DejaVuSans-107"/>
       <path d="M 54.890625 33.015625 
L 54.890625 0 
L 45.90625 0 
L 45.90625 32.71875 
Q 45.90625 40.484375 42.875 44.328125 
Q 39.84375 48.1875 33.796875 48.1875 
Q 26.515625 48.1875 22.3125 43.546875 
Q 18.109375 38.921875 18.109375 30.90625 
L 18.109375 0 
L 9.078125 0 
L 9.078125 75.984375 
L 18.109375 75.984375 
L 18.109375 46.1875 
Q 21.34375 51.125 25.703125 53.5625 
Q 30.078125 56 35.796875 56 
Q 45.21875 56 50.046875 50.171875 
Q 54.890625 44.34375 54.890625 33.015625 
z
" id="DejaVuSans-104"/>
       <path d="M 34.28125 27.484375 
Q 23.390625 27.484375 19.1875 25 
Q 14.984375 22.515625 14.984375 16.5 
Q 14.984375 11.71875 18.140625 8.90625 
Q 21.296875 6.109375 26.703125 6.109375 
Q 34.1875 6.109375 38.703125 11.40625 
Q 43.21875 16.703125 43.21875 25.484375 
L 43.21875 27.484375 
z
M 52.203125 31.203125 
L 52.203125 0 
L 43.21875 0 
L 43.21875 8.296875 
Q 40.140625 3.328125 35.546875 0.953125 
Q 30.953125 -1.421875 24.3125 -1.421875 
Q 15.921875 -1.421875 10.953125 3.296875 
Q 6 8.015625 6 15.921875 
Q 6 25.140625 12.171875 29.828125 
Q 18.359375 34.515625 30.609375 34.515625 
L 43.21875 34.515625 
L 43.21875 35.40625 
Q 43.21875 41.609375 39.140625 45 
Q 35.0625 48.390625 27.6875 48.390625 
Q 23 48.390625 18.546875 47.265625 
Q 14.109375 46.140625 10.015625 43.890625 
L 10.015625 52.203125 
Q 14.9375 54.109375 19.578125 55.046875 
Q 24.21875 56 28.609375 56 
Q 40.484375 56 46.34375 49.84375 
Q 52.203125 43.703125 52.203125 31.203125 
z
M 33.59375 75.78125 
L 43.5 75.78125 
L 43.5 65.921875 
L 33.59375 65.921875 
z
M 14.5 75.78125 
L 24.421875 75.78125 
L 24.421875 65.921875 
L 14.5 65.921875 
z
" id="DejaVuSans-228"/>
      </defs>
      <use xlink:href="#DejaVuSans-65"/>
      <use x="68.408203" xlink:href="#DejaVuSans-108"/>
      <use x="96.191406" xlink:href="#DejaVuSans-107"/>
      <use x="150.476562" xlink:href="#DejaVuSans-111"/>
      <use x="211.658203" xlink:href="#DejaVuSans-104"/>
      <use x="275.037109" xlink:href="#DejaVuSans-111"/>
      <use x="336.21875" xlink:href="#DejaVuSans-108"/>
      <use x="364.001953" xlink:href="#DejaVuSans-117"/>
      <use x="427.380859" xlink:href="#DejaVuSans-110"/>
      <use x="490.759766" xlink:href="#DejaVuSans-102"/>
      <use x="525.964844" xlink:href="#DejaVuSans-228"/>
      <use x="587.244141" xlink:href="#DejaVuSans-108"/>
      <use x="615.027344" xlink:href="#DejaVuSans-108"/>
      <use x="642.810547" xlink:href="#DejaVuSans-101"/>
     </g>
    </g>
    <g id="line2d_18">
     <path d="M 274.198438 142.539375 
L 294.198438 142.539375 
" style="fill:none;stroke:#ff7f0e;stroke-linecap:square;stroke-width:1.5;"/>
    </g>
    <g id="line2d_19"/>
    <g id="text_17">
     <!-- Fluchtunfälle -->
     <g transform="translate(302.198438 146.039375)scale(0.1 -0.1)">
      <defs>
       <path d="M 9.8125 72.90625 
L 51.703125 72.90625 
L 51.703125 64.59375 
L 19.671875 64.59375 
L 19.671875 43.109375 
L 48.578125 43.109375 
L 48.578125 34.8125 
L 19.671875 34.8125 
L 19.671875 0 
L 9.8125 0 
z
" id="DejaVuSans-70"/>
      </defs>
      <use xlink:href="#DejaVuSans-70"/>
      <use x="57.519531" xlink:href="#DejaVuSans-108"/>
      <use x="85.302734" xlink:href="#DejaVuSans-117"/>
      <use x="148.681641" xlink:href="#DejaVuSans-99"/>
      <use x="203.662109" xlink:href="#DejaVuSans-104"/>
      <use x="267.041016" xlink:href="#DejaVuSans-116"/>
      <use x="306.25" xlink:href="#DejaVuSans-117"/>
      <use x="369.628906" xlink:href="#DejaVuSans-110"/>
      <use x="433.007812" xlink:href="#DejaVuSans-102"/>
      <use x="468.212891" xlink:href="#DejaVuSans-228"/>
      <use x="529.492188" xlink:href="#DejaVuSans-108"/>
      <use x="557.275391" xlink:href="#DejaVuSans-108"/>
      <use x="585.058594" xlink:href="#DejaVuSans-101"/>
     </g>
    </g>
    <g id="line2d_20">
     <path d="M 274.198438 157.2175 
L 294.198438 157.2175 
" style="fill:none;stroke:#2ca02c;stroke-linecap:square;stroke-width:1.5;"/>
    </g>
    <g id="line2d_21"/>
    <g id="text_18">
     <!-- Verkehrsunfälle -->
     <g transform="translate(302.198438 160.7175)scale(0.1 -0.1)">
      <defs>
       <path d="M 28.609375 0 
L 0.78125 72.90625 
L 11.078125 72.90625 
L 34.1875 11.53125 
L 57.328125 72.90625 
L 67.578125 72.90625 
L 39.796875 0 
z
" id="DejaVuSans-86"/>
      </defs>
      <use xlink:href="#DejaVuSans-86"/>
      <use x="60.658203" xlink:href="#DejaVuSans-101"/>
      <use x="122.181641" xlink:href="#DejaVuSans-114"/>
      <use x="163.294922" xlink:href="#DejaVuSans-107"/>
      <use x="217.580078" xlink:href="#DejaVuSans-101"/>
      <use x="279.103516" xlink:href="#DejaVuSans-104"/>
      <use x="342.482422" xlink:href="#DejaVuSans-114"/>
      <use x="383.595703" xlink:href="#DejaVuSans-115"/>
      <use x="435.695312" xlink:href="#DejaVuSans-117"/>
      <use x="499.074219" xlink:href="#DejaVuSans-110"/>
      <use x="562.453125" xlink:href="#DejaVuSans-102"/>
      <use x="597.658203" xlink:href="#DejaVuSans-228"/>
      <use x="658.9375" xlink:href="#DejaVuSans-108"/>
      <use x="686.720703" xlink:href="#DejaVuSans-108"/>
      <use x="714.503906" xlink:href="#DejaVuSans-101"/>
     </g>
    </g>
   </g>
  </g>
 </g>
 <defs>
  <clipPath id="p5ae75f8ab5">
   <rect height="217.44" width="334.8" x="54" y="34.56"/>
  </clipPath>
 </defs>
</svg>
